<svg xmlns="http://www.w3.org/2000/svg" width="21" height="21" fill="none">
  <symbol id="floppy">
    <path fill="currentColor" d="M.5.5h3v3h-3zM.5 3.5h3v3h-3zM.5 6.5h3v3h-3zM.5 9.5h3v3h-3zM.5 12.5h3v3h-3zM.5 15.5h3v3h-3zM.5 18.5h3v3h-3zM.5 21.5h3v3h-3zM.5 24.5h3v3h-3zM.5 27.5h3v3h-3zM.5 30.5h3v3h-3zM.5 33.5h3v3h-3zM.5 36.5h3v3h-3zM33.5.5v3h-3v-3zM30.5.5v3h-3v-3zM27.5.5v3h-3v-3zM24.5.5v3h-3v-3zM21.5.5v3h-3v-3zM18.5.5v3h-3v-3zM15.5.5v3h-3v-3zM12.5.5v3h-3v-3zM9.5.5v3h-3v-3zM6.5.5v3h-3v-3zM36.5 3.5v3h-3v-3zM9.5 6.5v3h-3v-3zM9.5 3.5v3h-3v-3zM9.5 9.5v3h-3v-3zM30.5 6.5v3h-3v-3zM30.5 3.5v3h-3v-3zM30.5 9.5v3h-3v-3zM24.5 6.5v3h-3v-3zM24.5 3.5v3h-3v-3zM24.5 9.5v3h-3v-3zM30.5 12.5v3h-3v-3zM27.5 12.5v3h-3v-3zM24.5 12.5v3h-3v-3zM21.5 12.5v3h-3v-3zM18.5 12.5v3h-3v-3zM15.5 12.5v3h-3v-3zM12.5 12.5v3h-3v-3zM9.5 12.5v3h-3v-3zM33.5 21.5v3h-3v-3zM30.5 21.5v3h-3v-3zM27.5 21.5v3h-3v-3zM24.5 21.5v3h-3v-3zM21.5 21.5v3h-3v-3zM18.5 21.5v3h-3v-3zM15.5 21.5v3h-3v-3zM12.5 21.5v3h-3v-3zM9.5 21.5v3h-3v-3zM33.5 24.5v3h-3v-3zM9.5 24.5v3h-3v-3zM33.5 27.5v3h-3v-3zM9.5 27.5v3h-3v-3zM33.5 30.5v3h-3v-3zM9.5 30.5v3h-3v-3zM9.5 33.5v3h-3v-3zM33.5 33.5v3h-3v-3zM36.5 36.5v3h-3v-3zM33.5 36.5v3h-3v-3zM30.5 36.5v3h-3v-3zM27.5 36.5v3h-3v-3zM24.5 36.5v3h-3v-3zM21.5 36.5v3h-3v-3zM18.5 36.5v3h-3v-3zM15.5 36.5v3h-3v-3zM12.5 36.5v3h-3v-3zM9.5 36.5v3h-3v-3zM6.5 36.5v3h-3v-3zM39.5 39.5h-3v-3h3zM39.5 36.5h-3v-3h3zM39.5 33.5h-3v-3h3zM39.5 30.5h-3v-3h3zM39.5 27.5h-3v-3h3zM39.5 24.5h-3v-3h3zM39.5 21.5h-3v-3h3zM39.5 18.5h-3v-3h3zM39.5 15.5h-3v-3h3zM39.5 12.5h-3v-3h3zM39.5 9.5h-3v-3h3z"/>
  </symbol>
</svg>

<svg class="like-icon" xmlns="http://www.w3.org/2000/svg" width="39" height="36" fill="none">
<path fill="#000" d="M12 6H9v3h3V6Zm3 0h-3v3h3V6ZM9 9H6v3h3V9Zm0 3H6v3h3v-3Zm0 3H6v3h3v-3Zm9-9h-3v3h3V6Zm-6 12H9v3h3v-3Zm3 3h-3v3h3v-3Zm3 3h-3v3h3v-3Zm9-18h3v3h-3V6Zm-3 0h3v3h-3V6Zm6 3h3v3h-3V9Zm0 3h3v3h-3v-3Zm0 3h3v3h-3v-3Zm-9-9h3v3h-3V6Zm6 12h3v3h-3v-3Zm-3 3h3v3h-3v-3Zm-3 3h3v3h-3v-3Zm0 3h-3v3h3v-3Zm0-18h-3v3h3V9Z"/>
<path fill="red" d="M12 9H9v3h3V9Zm3 3h-3v3h3v-3Zm3-3h-3v3h3V9Zm-6 6H9v3h3v-3Zm3 0h-3v3h3v-3Zm0 3h-3v3h3v-3Zm3-6h-3v3h3v-3Zm0 9h-3v3h3v-3Zm0-3h-3v3h3v-3Zm9-9h3v3h-3V9Zm-3 0h3v3h-3V9Zm3 3h3v3h-3v-3Zm-3 0h3v3h-3v-3Zm-3-3h3v3h-3V9Zm6 6h3v3h-3v-3Zm-3 0h3v3h-3v-3Zm0 3h3v3h-3v-3Zm-3-6h3v3h-3v-3Zm0 9h3v3h-3v-3Zm0-3h3v3h-3v-3Zm0 3h-3v3h3v-3Zm0 3h-3v3h3v-3Z"/>
<path fill="#fff" d="M18 15h-3v3h3v-3Zm3 0h3v3h-3v-3Zm0 0h-3v3h3v-3Zm0-3h-3v3h3v-3Zm0 6h-3v3h3v-3Z"/>
<path fill="red" d="M36 13h3v3h-3v-3Zm-9 14h3v3h-3v-3Zm-9 6h3v3h-3v-3Zm-9-6h3v3H9v-3ZM24 0h3v3h-3V0Zm9 3h3v3h-3V3ZM3 3h3v3H3V3Zm9-3h3v3h-3V0ZM0 13h3v3H0v-3Z"/>
</svg>

